# xmcd
#
# Track frame offsets:
#	150
#	16565
#	32899
#	47856
#	62744
#	87311
#	100293
#	121586
#	136936
#	151372
#	166164
#	182810
#	194869
#	210362
#
# Disc length: 3104 seconds
#
# Revision: 0
# Processed by: cddbd v1.5.1PL0 Copyright (c) Steve Scherf et al.
# Submitted via: EasyCDDAExtractor 8.0.2.1
#
DISCID=b60c1e0e
DTITLE=Various Artist - Mr Music Country  10 2005
DYEAR=1900
DGENRE=Country
TTITLE0=Billy Yates - Harmony man
TTITLE1=Billy Dee with Dale Watson and Ray Benson - I'm the only hell my mama ev
TTITLE1=er raised
TTITLE2=Holly Dunn - Just as I am
TTITLE3=Dean Holmen - The way things have been
TTITLE4=Jerry Sartain - Will the circle be unbroken
TTITLE5=Bob Plunkert - God's coloring book
TTITLE6=Lacy J. Dalton - Listen to the wind
TTITLE7=Tommy Wood - By you down on the bayou
TTITLE8=Diana Murrell - The half of it
TTITLE9=Red Kilby - Women in cowboy hats
TTITLE10=Highway 40 - Pardon me
TTITLE11=Tom Lang - California slipped my mind
TTITLE12=Tricia Hinds - Baby you ain't all that great
TTITLE13=Ed Bruce - The last cowboy song
EXTD=
EXTT0=
EXTT1=
EXTT2=
EXTT3=
EXTT4=
EXTT5=
EXTT6=
EXTT7=
EXTT8=
EXTT9=
EXTT10=
EXTT11=
EXTT12=
EXTT13=
PLAYORDER=
